<svg xmlns="http://www.w3.org/2000/svg" width="40" height="24" viewBox="0 0 40 24" fill="none">
<rect width="40" height="24" rx="4.54936" fill="#006FCF"/>
<path d="M9.971 10.268L10.745 12.144H9.203L9.971 10.268ZM26.046 10.346H23.069V11.173H25.998V12.412H23.075V13.334H26.052V14.073L28.129 11.828L26.052 9.488L26.046 10.346ZM11.983 8.006H15.978L16.865 9.941L17.687 8H28.057L29.135 9.19L30.25 8H35.013L31.494 11.852L34.977 15.68H30.143L29.065 14.49L27.94 15.68H11.03L10.536 14.49H9.406L8.911 15.68H5L8.286 8H11.716L11.983 8.006ZM20.646 9.084H18.407L16.907 12.62L15.282 9.084H13.06V13.894L11 9.084H9.007L6.625 14.596H8.18L8.674 13.406H11.27L11.764 14.596H14.484V10.661L16.235 14.602H17.425L19.165 10.673V14.603H20.623L20.647 9.083L20.646 9.084ZM29.986 11.852L32.517 9.084H30.695L29.094 10.81L27.546 9.084H21.652V14.602H27.462L29.076 12.864L30.624 14.602H32.499L29.987 11.852H29.986Z" fill="white"/>
</svg>