<svg xmlns="http://www.w3.org/2000/svg" width="12" height="10" viewBox="0 0 12 10" fill="none">
<path d="M10.8333 4.16665H2.5L5.24167 1.42499C5.31977 1.34752 5.38177 1.25535 5.42408 1.1538C5.46638 1.05225 5.48816 0.943331 5.48816 0.833321C5.48816 0.723312 5.46638 0.61439 5.42408 0.512841C5.38177 0.411292 5.31977 0.319124 5.24167 0.241655C5.08553 0.0864464 4.87432 -0.000671387 4.65417 -0.000671387C4.43401 -0.000671387 4.2228 0.0864464 4.06667 0.241655L0.491667 3.82498C0.178677 4.13611 0.00186066 4.55867 0 4.99998C0.00405549 5.4384 0.180704 5.85757 0.491667 6.16665L4.06667 9.74998C4.14437 9.82713 4.2365 9.88822 4.33781 9.92977C4.43912 9.97131 4.54762 9.99249 4.65711 9.99211C4.76661 9.99172 4.87496 9.96977 4.97597 9.92751C5.07698 9.88525 5.16868 9.82351 5.24583 9.74581C5.32298 9.66811 5.38408 9.57598 5.42562 9.47467C5.46717 9.37336 5.48835 9.26486 5.48796 9.15536C5.48758 9.04587 5.46563 8.93752 5.42337 8.83651C5.38111 8.7355 5.31937 8.6438 5.24167 8.56665L2.5 5.83331H10.8333C11.0543 5.83331 11.2663 5.74552 11.4226 5.58924C11.5789 5.43296 11.6667 5.221 11.6667 4.99998C11.6667 4.77897 11.5789 4.56701 11.4226 4.41073C11.2663 4.25445 11.0543 4.16665 10.8333 4.16665Z" fill="white"/>
</svg>