<svg xmlns="http://www.w3.org/2000/svg" width="14" height="9" viewBox="0 0 14 9" fill="none">
<path d="M13.7099 1.20998C13.6169 1.11625 13.5063 1.04186 13.3844 0.991091C13.2626 0.940323 13.1319 0.914185 12.9999 0.914185C12.8679 0.914185 12.7371 0.940323 12.6153 0.991091C12.4934 1.04186 12.3828 1.11625 12.2899 1.20998L7.70986 5.78997C7.6169 5.8837 7.5063 5.9581 7.38444 6.00886C7.26258 6.05963 7.13187 6.08577 6.99986 6.08577C6.86785 6.08577 6.73714 6.05963 6.61529 6.00886C6.49343 5.9581 6.38283 5.8837 6.28986 5.78997L1.70986 1.20998C1.6169 1.11625 1.5063 1.04186 1.38444 0.991091C1.26258 0.940323 1.13187 0.914185 0.999862 0.914185C0.86785 0.914185 0.737144 0.940323 0.615285 0.991091C0.493426 1.04186 0.382825 1.11625 0.289862 1.20998C0.103611 1.39734 -0.000930786 1.6508 -0.000930786 1.91498C-0.000930786 2.17917 0.103611 2.43262 0.289862 2.61998L4.87986 7.20997C5.44236 7.77177 6.20486 8.08733 6.99986 8.08733C7.79487 8.08733 8.55736 7.77177 9.11986 7.20997L13.7099 2.61998C13.8961 2.43262 14.0007 2.17917 14.0007 1.91498C14.0007 1.6508 13.8961 1.39734 13.7099 1.20998Z" fill="#979AB8"/>
</svg>