<svg xmlns="http://www.w3.org/2000/svg" width="40" height="24" viewBox="0 0 40 24" fill="none">
<rect x="0.5" y="0.5" width="39" height="23" rx="4.04936" fill="white" stroke="#D6D8EA"/>
<path d="M21.8557 19.6496C25.8682 19.6691 29.5308 16.3844 29.5308 12.3884C29.5308 8.01897 25.8682 4.99875 21.8557 5H18.4027C14.3422 4.99875 11 8.01968 11 12.3884C11 16.3853 14.3422 19.6691 18.4027 19.6496H21.8557Z" fill="#006095"/>
<path d="M19.943 16.2793V8.34475C21.5412 8.95656 22.6758 10.5007 22.6785 12.3118C22.6758 14.1232 21.5412 15.6664 19.943 16.2793ZM14.1607 12.3118C14.1643 10.5017 15.2971 8.95852 16.8944 8.34493V16.2777C15.2971 15.6646 14.1643 14.1223 14.1607 12.3118ZM18.419 5.60547C14.7087 5.60672 11.7021 8.60797 11.7012 12.3118C11.7021 16.0152 14.7087 19.0159 18.419 19.017C22.1305 19.0159 25.1377 16.0152 25.1382 12.3118C25.1377 8.60797 22.1305 5.60672 18.419 5.60547Z" fill="white"/>
</svg>