<svg xmlns="http://www.w3.org/2000/svg" width="40" height="24" viewBox="0 0 40 24" fill="none">
<rect x="0.5" y="0.5" width="39" height="23" rx="4.04936" fill="white" stroke="#D6D8EA"/>
<g clip-path="url(#clip0_0_5296)">
<path d="M30 17.5158C30 19.3967 28.6064 20.9283 26.8949 20.9283H10V7.41257C10 5.53166 11.3936 4.00006 13.1051 4.00006H30V17.5158Z" fill="white"/>
<path d="M24.499 14.0494H25.7826C25.8193 14.0494 25.9049 14.036 25.9416 14.036C26.1861 13.9822 26.3939 13.7404 26.3939 13.4045C26.3939 13.0821 26.1861 12.8403 25.9416 12.7731C25.9049 12.7596 25.8315 12.7596 25.7826 12.7596H24.499V14.0494Z" fill="url(#paint0_linear_0_5296)"/>
<path d="M25.6356 5.14166C24.4131 5.14166 23.4107 6.2299 23.4107 7.58685V10.1261H26.5525C26.6258 10.1261 26.7114 10.1261 26.7725 10.1395C27.4816 10.1798 28.0072 10.5829 28.0072 11.2815C28.0072 11.8323 27.6527 12.3026 26.9926 12.3966V12.4235C27.7138 12.4772 28.264 12.9206 28.264 13.6058C28.264 14.3447 27.6527 14.8284 26.8459 14.8284H23.3984V19.7993H26.6625C27.885 19.7993 28.8874 18.7111 28.8874 17.3541V5.14166H25.6356Z" fill="url(#paint1_linear_0_5296)"/>
<path d="M26.235 11.4428C26.235 11.1203 26.0271 10.9054 25.7826 10.8651C25.7582 10.8651 25.6971 10.8516 25.6604 10.8516H24.499V12.0339H25.6604C25.6971 12.0339 25.7704 12.0339 25.7826 12.0205C26.0271 11.9802 26.235 11.7652 26.235 11.4428Z" fill="url(#paint2_linear_0_5296)"/>
<path d="M13.3377 5.14166C12.1153 5.14166 11.1128 6.2299 11.1128 7.58685V13.6192C11.7363 13.9551 12.3842 14.17 13.0321 14.17C13.8023 14.17 14.2179 13.6595 14.2179 12.9609V10.1126H16.125V12.9474C16.125 14.0491 15.5016 14.9493 13.3866 14.9493C12.103 14.9493 11.1006 14.6403 11.1006 14.6403V19.7859H14.3646C15.5871 19.7859 16.5896 18.6977 16.5896 17.3407V5.14166H13.3377Z" fill="url(#paint3_linear_0_5296)"/>
<path d="M19.4867 5.14166C18.2642 5.14166 17.2617 6.2299 17.2617 7.58685V10.7844C17.8241 10.2604 18.8021 9.92455 20.3791 10.0052C21.2226 10.0455 22.1272 10.3007 22.1272 10.3007V11.3352C21.6749 11.08 21.137 10.8516 20.4402 10.7978C19.2422 10.7038 18.5209 11.3487 18.5209 12.4772C18.5209 13.6192 19.2422 14.2641 20.4402 14.1566C21.137 14.1029 21.6749 13.861 22.1272 13.6192V14.6537C22.1272 14.6537 21.2348 14.909 20.3791 14.9493C18.8021 15.0299 17.8241 14.694 17.2617 14.17V19.8128H20.5258C21.7483 19.8128 22.7507 18.7245 22.7507 17.3676V5.14166H19.4867Z" fill="url(#paint4_linear_0_5296)"/>
</g>
<defs>
<linearGradient id="paint0_linear_0_5296" x1="23.409" y1="13.4061" x2="28.9025" y2="13.4061" gradientUnits="userSpaceOnUse">
<stop stop-color="#007940"/>
<stop offset="0.2285" stop-color="#00873F"/>
<stop offset="0.7433" stop-color="#40A737"/>
<stop offset="1" stop-color="#5CB531"/>
</linearGradient>
<linearGradient id="paint1_linear_0_5296" x1="23.4085" y1="12.4646" x2="28.9024" y2="12.4646" gradientUnits="userSpaceOnUse">
<stop stop-color="#007940"/>
<stop offset="0.2285" stop-color="#00873F"/>
<stop offset="0.7433" stop-color="#40A737"/>
<stop offset="1" stop-color="#5CB531"/>
</linearGradient>
<linearGradient id="paint2_linear_0_5296" x1="23.4088" y1="11.4411" x2="28.9026" y2="11.4411" gradientUnits="userSpaceOnUse">
<stop stop-color="#007940"/>
<stop offset="0.2285" stop-color="#00873F"/>
<stop offset="0.7433" stop-color="#40A737"/>
<stop offset="1" stop-color="#5CB531"/>
</linearGradient>
<linearGradient id="paint3_linear_0_5296" x1="11.1102" y1="12.4646" x2="16.6888" y2="12.4646" gradientUnits="userSpaceOnUse">
<stop stop-color="#1F286F"/>
<stop offset="0.4751" stop-color="#004E94"/>
<stop offset="0.8261" stop-color="#0066B1"/>
<stop offset="1" stop-color="#006FBC"/>
</linearGradient>
<linearGradient id="paint4_linear_0_5296" x1="17.2301" y1="12.4646" x2="22.6482" y2="12.4646" gradientUnits="userSpaceOnUse">
<stop stop-color="#6C2C2F"/>
<stop offset="0.1735" stop-color="#882730"/>
<stop offset="0.5731" stop-color="#BE1833"/>
<stop offset="0.8585" stop-color="#DC0436"/>
<stop offset="1" stop-color="#E60039"/>
</linearGradient>
<clipPath id="clip0_0_5296">
<rect width="20" height="17" fill="white" transform="translate(10 4.00006)"/>
</clipPath>
</defs>
</svg>