<svg xmlns="http://www.w3.org/2000/svg" width="40" height="24" viewBox="0 0 40 24" fill="none">
<rect x="0.5" y="0.500183" width="39" height="23" rx="4.04936" fill="white" stroke="#D6D8EA"/>
<path d="M16 19.0002C19.866 19.0002 23 15.8662 23 12.0002C23 8.13419 19.866 5.00018 16 5.00018C12.134 5.00018 9 8.13419 9 12.0002C9 15.8662 12.134 19.0002 16 19.0002Z" fill="#EB001B"/>
<path d="M24 19.0001C27.866 19.0001 31 15.8661 31 12.0001C31 8.13407 27.866 5.00006 24 5.00006C20.134 5.00006 17 8.13407 17 12.0001C17 15.8661 20.134 19.0001 24 19.0001Z" fill="#F79E1B"/>
<path d="M23 11.9999C23 9.59993 21.8 7.49993 20 6.29993C18.2 7.59993 17 9.69993 17 11.9999C17 14.2999 18.2 16.4999 20 17.6999C21.8 16.4999 23 14.3999 23 11.9999Z" fill="#FF5F00"/>
</svg>