<svg xmlns="http://www.w3.org/2000/svg" width="55" height="24" viewBox="0 0 55 24" fill="none">
<rect x="0.56867" y="0.56867" width="53.8627" height="22.8627" rx="3.98069" fill="white" stroke="#D6D8EA" stroke-width="1.13734"/>
<path d="M12.344 16L11.312 14.968C10.912 15.368 10.476 15.668 10.004 15.868C9.532 16.06 9.004 16.156 8.42 16.156C7.828 16.156 7.304 16.052 6.848 15.844C6.392 15.636 6.04 15.34 5.792 14.956C5.544 14.564 5.42 14.112 5.42 13.6C5.42 13.024 5.584 12.512 5.912 12.064C6.24 11.608 6.728 11.248 7.376 10.984C7.144 10.704 6.98 10.444 6.884 10.204C6.788 9.956 6.74 9.684 6.74 9.388C6.74 9.02 6.832 8.692 7.016 8.404C7.208 8.116 7.48 7.888 7.832 7.72C8.184 7.552 8.592 7.468 9.056 7.468C9.528 7.468 9.928 7.56 10.256 7.744C10.592 7.92 10.84 8.164 11 8.476C11.168 8.788 11.236 9.136 11.204 9.52H9.836C9.844 9.224 9.772 8.996 9.62 8.836C9.468 8.668 9.26 8.584 8.996 8.584C8.732 8.584 8.516 8.664 8.348 8.824C8.188 8.976 8.108 9.164 8.108 9.388C8.108 9.604 8.168 9.82 8.288 10.036C8.416 10.244 8.636 10.516 8.948 10.852L11.156 13.048L12.008 11.644H13.484L12.404 13.492L12.104 13.984L14.132 16H12.344ZM8.42 14.992C9.172 14.992 9.836 14.684 10.412 14.068L8.204 11.848C7.26 12.224 6.788 12.792 6.788 13.552C6.788 13.96 6.94 14.304 7.244 14.584C7.548 14.856 7.94 14.992 8.42 14.992ZM26.1501 9.28C26.6701 9.28 27.1341 9.388 27.5421 9.604C27.9581 9.82 28.2821 10.14 28.5141 10.564C28.7541 10.988 28.8741 11.5 28.8741 12.1V16H27.5181V12.304C27.5181 11.712 27.3701 11.26 27.0741 10.948C26.7781 10.628 26.3741 10.468 25.8621 10.468C25.3501 10.468 24.9421 10.628 24.6381 10.948C24.3421 11.26 24.1941 11.712 24.1941 12.304V16H22.8381V12.304C22.8381 11.712 22.6901 11.26 22.3941 10.948C22.0981 10.628 21.6941 10.468 21.1821 10.468C20.6701 10.468 20.2621 10.628 19.9581 10.948C19.6621 11.26 19.5141 11.712 19.5141 12.304V16H18.1461V9.388H19.5141V10.144C19.7381 9.872 20.0221 9.66 20.3661 9.508C20.7101 9.356 21.0781 9.28 21.4701 9.28C21.9981 9.28 22.4701 9.392 22.8861 9.616C23.3021 9.84 23.6221 10.164 23.8461 10.588C24.0461 10.188 24.3581 9.872 24.7821 9.64C25.2061 9.4 25.6621 9.28 26.1501 9.28ZM33.4828 16.108C32.8588 16.108 32.2948 15.968 31.7908 15.688C31.2868 15.4 30.8908 15 30.6028 14.488C30.3148 13.968 30.1708 13.368 30.1708 12.688C30.1708 12.016 30.3188 11.42 30.6148 10.9C30.9108 10.38 31.3148 9.98 31.8268 9.7C32.3388 9.42 32.9108 9.28 33.5428 9.28C34.1748 9.28 34.7468 9.42 35.2588 9.7C35.7708 9.98 36.1748 10.38 36.4708 10.9C36.7668 11.42 36.9148 12.016 36.9148 12.688C36.9148 13.36 36.7628 13.956 36.4588 14.476C36.1548 14.996 35.7388 15.4 35.2108 15.688C34.6908 15.968 34.1148 16.108 33.4828 16.108ZM33.4828 14.92C33.8348 14.92 34.1628 14.836 34.4668 14.668C34.7788 14.5 35.0308 14.248 35.2228 13.912C35.4148 13.576 35.5108 13.168 35.5108 12.688C35.5108 12.208 35.4188 11.804 35.2348 11.476C35.0508 11.14 34.8068 10.888 34.5028 10.72C34.1988 10.552 33.8708 10.468 33.5188 10.468C33.1668 10.468 32.8388 10.552 32.5348 10.72C32.2388 10.888 32.0028 11.14 31.8268 11.476C31.6508 11.804 31.5628 12.208 31.5628 12.688C31.5628 13.4 31.7428 13.952 32.1028 14.344C32.4708 14.728 32.9308 14.92 33.4828 14.92ZM39.6352 10.348C39.8352 10.012 40.0992 9.752 40.4272 9.568C40.7632 9.376 41.1592 9.28 41.6152 9.28V10.696H41.2672C40.7312 10.696 40.3232 10.832 40.0432 11.104C39.7712 11.376 39.6352 11.848 39.6352 12.52V16H38.2672V9.388H39.6352V10.348ZM48.9327 12.532C48.9327 12.78 48.9167 13.004 48.8847 13.204H43.8327C43.8727 13.732 44.0687 14.156 44.4207 14.476C44.7727 14.796 45.2047 14.956 45.7167 14.956C46.4527 14.956 46.9727 14.648 47.2767 14.032H48.7527C48.5527 14.64 48.1887 15.14 47.6607 15.532C47.1407 15.916 46.4927 16.108 45.7167 16.108C45.0847 16.108 44.5167 15.968 44.0127 15.688C43.5167 15.4 43.1247 15 42.8367 14.488C42.5567 13.968 42.4167 13.368 42.4167 12.688C42.4167 12.008 42.5527 11.412 42.8247 10.9C43.1047 10.38 43.4927 9.98 43.9887 9.7C44.4927 9.42 45.0687 9.28 45.7167 9.28C46.3407 9.28 46.8967 9.416 47.3847 9.688C47.8727 9.96 48.2527 10.344 48.5247 10.84C48.7967 11.328 48.9327 11.892 48.9327 12.532ZM47.5047 12.1C47.4967 11.596 47.3167 11.192 46.9647 10.888C46.6127 10.584 46.1767 10.432 45.6567 10.432C45.1847 10.432 44.7807 10.584 44.4447 10.888C44.1087 11.184 43.9087 11.588 43.8447 12.1H47.5047Z" fill="#4B4E68"/>
</svg>