<svg xmlns="http://www.w3.org/2000/svg" width="40" height="24" viewBox="0 0 40 24" fill="none">
<rect x="0.5" y="0.5" width="39" height="23" rx="4.04936" fill="white" stroke="#D6D8EA"/>
<path fill-rule="evenodd" clip-rule="evenodd" d="M18.6856 8.33301H23.1379C25.5284 8.33301 26.4283 9.41892 26.2892 11.0163C26.0605 13.6501 24.2849 15.1073 21.9312 15.1073H20.7428C20.4199 15.1073 20.2027 15.2991 20.1153 15.8189L19.6051 18.8384C19.5717 19.0343 19.4568 19.1498 19.2844 19.1632H16.4928C16.2297 19.1632 16.1366 18.9827 16.2055 18.5919L17.911 8.90535C17.9788 8.5176 18.2144 8.33301 18.6856 8.33301Z" fill="#009EE3"/>
<path fill-rule="evenodd" clip-rule="evenodd" d="M15.8996 5H20.3565C21.6115 5 23.1009 5.03609 24.0962 5.825C24.7616 6.35197 25.111 7.19038 25.0305 8.09066C24.757 11.1442 22.7216 12.8551 19.991 12.8551H17.7936C17.4189 12.8551 17.1718 13.0778 17.0661 13.6801L16.4524 17.1812C16.4122 17.408 16.303 17.5421 16.103 17.5586H13.3574C13.0528 17.5586 12.9448 17.3493 13.0241 16.8965L15.0009 5.66413C15.0802 5.2145 15.3548 5 15.8996 5Z" fill="#113984"/>
<path fill-rule="evenodd" clip-rule="evenodd" d="M17.1309 13.3274L17.9089 8.90638C17.9767 8.51863 18.2135 8.33301 18.6847 8.33301H23.1369C23.8736 8.33301 24.4701 8.43613 24.9367 8.62691C24.4896 11.3453 22.5301 12.855 19.965 12.855H17.7664C17.4768 12.855 17.2607 12.9881 17.1309 13.3274Z" fill="#172C70"/>
</svg>