<svg xmlns="http://www.w3.org/2000/svg" width="40" height="24" viewBox="0 0 40 24" fill="none">
<rect x="0.5" y="0.5" width="39" height="23" rx="4.04936" fill="white" stroke="#D6D8EA"/>
<path d="M30.3 10.1H30C29.6 11.1 29.3 11.6 29 13.1H30.9C30.6 11.6 30.6 10.9 30.3 10.1ZM33.2 16H31.5C31.4 16 31.4 16 31.3 15.9L31.1 15L31 14.8H28.6C28.5 14.8 28.4 14.8 28.4 15L28.1 15.9C28.1 16 28 16 28 16H25.9L26.1 15.5L29 8.7C29 8.2 29.3 8 29.8 8H31.3C31.4 8 31.5 8 31.5 8.2L32.9 14.7C33 15.1 33.1 15.4 33.1 15.8C33.2 15.9 33.2 15.9 33.2 16ZM19.8 15.7L20.2 13.9C20.3 13.9 20.4 14 20.4 14C21.1 14.3 21.8 14.5 22.5 14.4C22.7 14.4 23 14.3 23.2 14.2C23.7 14 23.7 13.5 23.3 13.1C23.1 12.9 22.8 12.8 22.5 12.6C22.1 12.4 21.7 12.2 21.4 11.9C20.2 10.9 20.6 9.5 21.3 8.8C21.9 8.4 22.2 8 23 8C24.2 8 25.5 8 26.1 8.2H26.2C26.1 8.8 26 9.3 25.8 9.9C25.3 9.7 24.8 9.5 24.3 9.5C24 9.5 23.7 9.5 23.4 9.6C23.2 9.6 23.1 9.7 23 9.8C22.8 10 22.8 10.3 23 10.5L23.5 10.9C23.9 11.1 24.3 11.3 24.6 11.5C25.1 11.8 25.6 12.3 25.7 12.9C25.9 13.8 25.6 14.6 24.8 15.2C24.3 15.6 24.1 15.8 23.4 15.8C22 15.8 20.9 15.9 20 15.6C19.9 15.8 19.9 15.8 19.8 15.7ZM16.3 16C16.4 15.3 16.4 15.3 16.5 15C17 12.8 17.5 10.5 17.9 8.3C18 8.1 18 8 18.2 8H20C19.8 9.2 19.6 10.1 19.3 11.2C19 12.7 18.7 14.2 18.3 15.7C18.3 15.9 18.2 15.9 18 15.9L16.3 16ZM7 8.2C7 8.1 7.2 8 7.3 8H10.7C11.2 8 11.6 8.3 11.7 8.8L12.6 13.2C12.6 13.3 12.6 13.3 12.7 13.4C12.7 13.3 12.8 13.3 12.8 13.3L14.9 8.2C14.8 8.1 14.9 8 15 8H17.1C17.1 8.1 17.1 8.1 17 8.2L13.9 15.5C13.8 15.7 13.8 15.8 13.7 15.9C13.6 16 13.4 15.9 13.2 15.9H11.7C11.6 15.9 11.5 15.9 11.5 15.7L9.9 9.5C9.7 9.3 9.4 9 9 8.9C8.4 8.6 7.3 8.4 7.1 8.4L7 8.2Z" fill="#142688"/>
</svg>